<svg width="300" height="300" viewBox="0 0 300 300" fill="none" xmlns="http://www.w3.org/2000/svg">
<rect width="300" height="300" fill="#013359"/>
<path d="M219.254 87.6072C206.204 81.6327 192.428 77.3942 178.276 75C176.34 78.4617 174.588 82.0234 173.027 85.6701C157.953 83.3986 142.624 83.3986 127.55 85.6701C125.989 82.0238 124.237 78.4621 122.301 75C108.141 77.4145 94.3549 81.663 81.2919 87.6385C55.3585 126.007 48.3284 163.422 51.8435 200.307C67.0307 211.528 84.0295 220.061 102.101 225.537C106.17 220.064 109.771 214.258 112.865 208.18C106.988 205.986 101.316 203.278 95.9146 200.088C97.3362 199.057 98.7266 197.995 100.07 196.964C115.788 204.355 132.943 208.188 150.312 208.188C167.681 208.188 184.836 204.355 200.554 196.964C201.913 198.073 203.304 199.135 204.71 200.088C199.298 203.283 193.615 205.996 187.728 208.196C190.818 214.271 194.419 220.072 198.492 225.537C216.579 220.083 233.591 211.554 248.781 200.322C252.905 157.548 241.735 120.477 219.254 87.6072ZM117.317 177.623C107.522 177.623 99.4296 168.734 99.4296 157.798C99.4296 146.863 107.241 137.896 117.286 137.896C127.331 137.896 135.361 146.863 135.19 157.798C135.018 168.734 127.3 177.623 117.317 177.623ZM183.307 177.623C173.496 177.623 165.435 168.734 165.435 157.798C165.435 146.863 173.246 137.896 183.307 137.896C193.368 137.896 201.335 146.863 201.163 157.798C200.992 168.734 193.29 177.623 183.307 177.623Z" fill="white"/>
</svg>
