<svg width="800" height="800" viewBox="0 0 800 800" fill="none" xmlns="http://www.w3.org/2000/svg">
<path fill-rule="evenodd" clip-rule="evenodd" d="M133.001 561.799L89.2007 678.599C87.5188 683.094 87.1662 687.978 88.1852 692.668C89.2041 697.358 91.5514 701.656 94.9467 705.047C98.3421 708.439 102.642 710.782 107.333 711.796C112.024 712.81 116.908 712.453 121.401 710.766L238.167 666.966C251.532 661.96 263.671 654.152 273.767 644.066L612.001 305.833C612.001 305.833 600.201 270.466 564.867 235.099C529.534 199.766 494.134 187.966 494.134 187.966L155.901 526.199C145.814 536.296 138.006 548.435 133.001 561.799ZM541.301 140.799L587.401 94.6994C595.667 86.4327 606.701 81.1661 618.234 83.0994C634.467 85.766 659.301 93.8327 682.701 117.266C706.134 140.699 714.201 165.499 716.867 181.733C718.801 193.266 713.534 204.299 705.267 212.566L659.134 258.666C659.134 258.666 647.367 223.333 612.001 187.999C576.667 152.599 541.301 140.799 541.301 140.799Z" fill="#013359"/>
</svg>
