<svg width="300" height="300" viewBox="0 0 300 300" fill="none" xmlns="http://www.w3.org/2000/svg">
<rect width="300" height="300" fill="#013359"/>
<path d="M137.375 225.5C137.375 225.5 124.75 225.5 124.75 212.875C124.75 200.25 137.375 162.375 187.875 162.375C238.375 162.375 251 200.25 251 212.875C251 225.5 238.375 225.5 238.375 225.5H137.375ZM187.875 149.75C197.92 149.75 207.554 145.76 214.657 138.657C221.76 131.554 225.75 121.92 225.75 111.875C225.75 101.83 221.76 92.1963 214.657 85.0933C207.554 77.9904 197.92 74 187.875 74C177.83 74 168.196 77.9904 161.093 85.0933C153.99 92.1963 150 101.83 150 111.875C150 121.92 153.99 131.554 161.093 138.657C168.196 145.76 177.83 149.75 187.875 149.75Z" fill="white"/>
<path fill-rule="evenodd" clip-rule="evenodd" d="M114.852 225.5C112.98 221.558 112.047 217.237 112.125 212.875C112.125 195.768 120.71 178.156 136.567 165.91C128.652 163.471 120.406 162.278 112.125 162.375C61.625 162.375 49 200.25 49 212.875C49 225.5 61.625 225.5 61.625 225.5H114.852Z" fill="white"/>
<path d="M105.812 149.75C114.183 149.75 122.211 146.425 128.131 140.506C134.05 134.586 137.375 126.558 137.375 118.188C137.375 109.817 134.05 101.789 128.131 95.8694C122.211 89.9503 114.183 86.625 105.812 86.625C97.4416 86.625 89.4136 89.9503 83.4944 95.8694C77.5753 101.789 74.25 109.817 74.25 118.188C74.25 126.558 77.5753 134.586 83.4944 140.506C89.4136 146.425 97.4416 149.75 105.812 149.75Z" fill="white"/>
</svg>
