<svg width="300" height="300" viewBox="0 0 300 300" fill="none" xmlns="http://www.w3.org/2000/svg">
<rect width="300" height="300" fill="#013359"/>
<path d="M180.255 142.193L205.62 108.802L222.923 121.947L197.558 155.354L180.255 142.193ZM175.063 138.345L202.035 102.819L183.868 89.0326L156.897 124.559L175.063 138.345ZM163.97 98.8709L156.178 114.846L179.189 84.5676L162.028 71.5278L147.397 90.7887L163.97 98.8709ZM155.597 69.3034L136.768 55L119.812 77.3291L141.479 87.8941L155.597 69.3034ZM198.793 164.385L142.678 122.92L138.673 123.287L140.514 124.095L165.609 179.98L158.939 180.888L135.654 129.012L119.505 121.866L117.89 109.416L133.801 117.256L148.479 115.911L155.342 101.85L110.571 80.0137L78 125.435L118.811 186.996L109.647 245.784H184.777V197.473L199.024 177.719L203.347 158.373L198.793 164.385Z" fill="white"/>
</svg>
