<svg width="800" height="800" viewBox="0 0 800 800" fill="none" xmlns="http://www.w3.org/2000/svg">
<path d="M312.412 690.506V690.806L312.423 691.106C313.011 705.791 307.945 718.717 296.065 730.596C284.179 742.483 270.67 748.095 254.823 748.095H109.936C92.8505 747.407 79.3214 741.514 68.4038 730.596C57.4571 719.65 52.0576 706.595 52.0576 690.506V108.646V108.368L52.0473 108.091C51.4329 91.5016 56.763 78.4394 68.1133 67.6865C79.9423 56.4801 93.5409 51.0576 109.646 51.0576H254.823H255.101L255.378 51.0473C271.968 50.4329 285.03 55.763 295.783 67.1133C306.989 78.9423 312.412 92.541 312.412 108.646V690.506ZM747.942 690.506V690.806L747.954 691.106C748.542 705.791 743.476 718.717 731.596 730.596C719.71 742.483 706.201 748.095 690.354 748.095H545.492C530.214 747.42 516.813 741.698 504.796 730.313C493.169 719.299 487.589 706.328 487.589 690.506V108.935C488.277 91.8501 494.169 78.3213 505.087 67.4038C516.033 56.4571 529.088 51.0576 545.177 51.0576H690.354H690.632L690.909 51.0473C707.498 50.4329 720.561 55.763 731.313 67.1133C742.52 78.9423 747.942 92.541 747.942 108.646V690.506Z" fill="white" stroke="#013359" stroke-width="30"/>
</svg>
