<svg width="300" height="300" viewBox="0 0 300 300" fill="none" xmlns="http://www.w3.org/2000/svg">
<rect width="300" height="300" fill="#013359"/>
<path d="M110.365 149.894C108.527 148.056 106.035 147.022 103.436 147.021C100.836 147.021 98.3432 148.052 96.5045 149.89C94.6659 151.727 93.6325 154.219 93.6315 156.819C93.6306 159.418 94.6623 161.911 96.4996 163.75L100.155 167.395L64.9381 202.611C63.0568 204.493 62 207.045 62 209.706C62 212.366 63.0568 214.918 64.9381 216.8L83.5556 235.417C85.4372 237.299 87.9891 238.355 90.6498 238.355C93.3106 238.355 95.8624 237.299 97.7441 235.417L132.951 200.211L136.596 203.856C137.506 204.766 138.587 205.487 139.776 205.979C140.965 206.471 142.24 206.724 143.527 206.724C144.814 206.723 146.088 206.47 147.277 205.977C148.466 205.484 149.546 204.761 150.456 203.851C151.366 202.941 152.087 201.86 152.579 200.671C153.072 199.481 153.325 198.207 153.324 196.92C153.324 195.633 153.07 194.358 152.577 193.169C152.084 191.981 151.362 190.9 150.451 189.991L110.365 149.894Z" fill="white"/>
<path d="M172.724 62L120.938 139.684L160.681 179.437L238.375 127.651V62H172.724Z" fill="white"/>
</svg>
