<svg width="300" height="300" viewBox="0 0 300 300" fill="none" xmlns="http://www.w3.org/2000/svg">
<rect width="300" height="300" fill="#013359"/>
<path fill-rule="evenodd" clip-rule="evenodd" d="M50.6802 138.996C104.099 115.722 139.719 100.379 157.542 92.9656C208.43 71.7995 219.005 68.1227 225.897 68.0013C227.412 67.9746 230.802 68.3503 232.997 70.1317C234.851 71.6359 235.361 73.6679 235.605 75.0941C235.849 76.5203 236.153 79.7692 235.912 82.3077C233.154 111.282 221.222 181.597 215.151 214.049C212.583 227.781 207.525 232.385 202.628 232.835C191.987 233.815 183.907 225.803 173.6 219.047C157.473 208.475 148.362 201.894 132.707 191.578C114.615 179.656 126.343 173.103 136.654 162.394C139.352 159.592 186.237 116.946 187.145 113.077C187.258 112.594 187.363 110.79 186.292 109.838C185.221 108.885 183.639 109.211 182.498 109.47C180.881 109.837 155.116 126.866 105.206 160.557C97.8928 165.579 91.2689 168.026 85.3341 167.898C78.7915 167.756 66.206 164.198 56.85 161.157C45.3745 157.427 36.254 155.455 37.0482 149.12C37.4619 145.82 42.0059 142.445 50.6802 138.996Z" fill="white"/>
</svg>
