<svg width="300" height="300" viewBox="0 0 300 300" fill="none" xmlns="http://www.w3.org/2000/svg">
<rect width="300" height="300" fill="#013359"/>
<path d="M223.357 112.49C223.47 114.123 223.47 115.757 223.47 117.406C223.47 167.648 185.222 225.593 115.283 225.593V225.563C94.6232 225.593 74.3924 219.675 57 208.517C60.0041 208.878 63.0233 209.059 66.0501 209.066C83.1714 209.081 99.8033 203.336 113.273 192.758C97.0024 192.449 82.7347 181.841 77.7504 166.353C83.4499 167.453 89.3227 167.227 94.9168 165.698C77.1781 162.114 64.4162 146.529 64.4162 128.429C64.4162 128.263 64.4162 128.105 64.4162 127.947C69.7017 130.891 75.6196 132.525 81.6731 132.705C64.9659 121.54 59.8159 99.3136 69.905 81.9363C89.2097 105.691 117.693 120.132 148.268 121.66C145.204 108.454 149.39 94.6154 159.269 85.332C174.583 70.9362 198.669 71.6741 213.064 86.9809C221.58 85.3019 229.742 82.1773 237.21 77.7501C234.372 86.5517 228.431 94.0282 220.496 98.7791C228.032 97.8906 235.396 95.8728 242.33 92.7934C237.225 100.443 230.796 107.106 223.357 112.49Z" fill="#F5F5F5"/>
</svg>
